# This file uses centimeters as units for non-parametric coordinates.

mtllib carrotbase.mtl
g default
v -0.211495 0.089088 -0.211495
v -0.000000 0.089088 -0.299098
v 0.211495 0.089088 -0.211495
v 0.299098 0.089088 0.000000
v 0.211495 0.089088 0.211495
v -0.000000 0.089088 0.299098
v -0.211495 0.089088 0.211495
v -0.299099 0.089088 0.000000
v 0.000000 -0.526821 0.000000
v -0.114599 0.264314 0.000000
v -0.081034 0.264314 -0.081034
v -0.081034 0.264314 0.081034
v -0.000000 0.264314 0.114599
v 0.081034 0.264314 0.081034
v 0.114599 0.264314 0.000000
v 0.081034 0.264314 -0.081034
v -0.000000 0.264314 -0.114599
v -0.249571 0.212651 0.000000
v -0.176473 0.212651 -0.176473
v -0.000000 0.212651 -0.249571
v 0.176473 0.212651 -0.176473
v 0.249571 0.212651 0.000000
v 0.176473 0.212651 0.176473
v -0.000000 0.212651 0.249571
v -0.176473 0.212651 0.176473
vt 0.676777 0.073223
vt 0.500000 0.000000
vt 0.323223 0.073223
vt 0.250000 0.250000
vt 0.323223 0.426777
vt 0.500000 0.500000
vt 0.676777 0.426777
vt 0.750000 0.250000
vt 0.250000 0.500000
vt 0.312500 0.500000
vt 0.375000 0.500000
vt 0.437500 0.500000
vt 0.500000 0.500000
vt 0.562500 0.500000
vt 0.625000 0.500000
vt 0.687500 0.500000
vt 0.750000 0.500000
vt 0.500000 1.000000
vt 0.676777 0.073223
vt 0.750000 0.250000
vt 0.676777 0.426777
vt 0.500000 0.500000
vt 0.323223 0.426777
vt 0.250000 0.250000
vt 0.323223 0.073223
vt 0.500000 0.000000
vt 0.750000 0.250000
vt 0.676777 0.073223
vt 0.500000 0.000000
vt 0.323223 0.073223
vt 0.250000 0.250000
vt 0.323223 0.426777
vt 0.500000 0.500000
vt 0.676777 0.426777
vn -0.000000 1.000000 0.000000
vn -0.000000 1.000000 0.000000
vn -0.000000 1.000000 0.000000
vn -0.000000 1.000000 0.000000
vn -0.000000 1.000000 0.000000
vn -0.000000 1.000000 0.000000
vn -0.000000 1.000000 0.000000
vn -0.000000 1.000000 0.000000
vn -0.349153 -0.409344 -0.842929
vn -0.349153 -0.409344 -0.842929
vn -0.349153 -0.409344 -0.842929
vn 0.349153 -0.409344 -0.842929
vn 0.349153 -0.409344 -0.842929
vn 0.349153 -0.409344 -0.842929
vn 0.842929 -0.409344 -0.349153
vn 0.842929 -0.409344 -0.349153
vn 0.842929 -0.409344 -0.349153
vn 0.842929 -0.409344 0.349153
vn 0.842929 -0.409344 0.349153
vn 0.842929 -0.409344 0.349153
vn 0.349153 -0.409344 0.842929
vn 0.349153 -0.409344 0.842929
vn 0.349153 -0.409344 0.842929
vn -0.349153 -0.409344 0.842929
vn -0.349153 -0.409344 0.842929
vn -0.349153 -0.409344 0.842929
vn -0.842929 -0.409344 0.349153
vn -0.842929 -0.409344 0.349153
vn -0.842929 -0.409344 0.349153
vn -0.842929 -0.409344 -0.349153
vn -0.842929 -0.409344 -0.349153
vn -0.842929 -0.409344 -0.349153
vn -0.866381 0.347273 -0.358867
vn -0.866381 0.347273 -0.358867
vn -0.755439 0.575671 -0.312913
vn -0.755439 0.575671 -0.312913
vn -0.866381 0.347273 0.358867
vn -0.866381 0.347273 0.358867
vn -0.755439 0.575671 0.312913
vn -0.755439 0.575671 0.312913
vn -0.358867 0.347273 0.866381
vn -0.358867 0.347273 0.866381
vn -0.312913 0.575671 0.755439
vn -0.312913 0.575671 0.755439
vn 0.358867 0.347273 0.866381
vn 0.358867 0.347273 0.866381
vn 0.312913 0.575671 0.755439
vn 0.312913 0.575671 0.755439
vn 0.866381 0.347273 0.358867
vn 0.866381 0.347273 0.358867
vn 0.755439 0.575671 0.312913
vn 0.755439 0.575671 0.312913
vn 0.866381 0.347273 -0.358867
vn 0.866381 0.347273 -0.358867
vn 0.755439 0.575671 -0.312913
vn 0.755439 0.575671 -0.312913
vn 0.358867 0.347273 -0.866381
vn 0.358867 0.347273 -0.866381
vn 0.312913 0.575671 -0.755439
vn 0.312913 0.575671 -0.755439
vn -0.358867 0.347273 -0.866381
vn -0.358867 0.347273 -0.866381
vn -0.312913 0.575671 -0.755439
vn -0.312913 0.575671 -0.755439
vn -0.353618 0.923851 -0.146474
vn -0.353618 0.923850 -0.146474
vn -0.146474 0.923851 -0.353618
vn -0.146474 0.923851 -0.353618
vn 0.146474 0.923850 -0.353618
vn 0.146474 0.923850 -0.353618
vn 0.353618 0.923851 -0.146474
vn 0.353618 0.923851 -0.146474
vn 0.353618 0.923851 0.146473
vn 0.353618 0.923851 0.146473
vn 0.146474 0.923851 0.353618
vn 0.146474 0.923851 0.353618
vn -0.146474 0.923851 0.353618
vn -0.146474 0.923851 0.353618
vn -0.353618 0.923851 0.146474
vn -0.353618 0.923850 0.146474
s off
g pCone1
usemtl initialShadingGroup
f 11/19/1 10/20/2 12/21/3 13/22/4 14/23/5 15/24/6 16/25/7 17/26/8
f 1/9/9 2/10/10 9/18/11
f 2/10/12 3/11/13 9/18/14
f 3/11/15 4/12/16 9/18/17
f 4/12/18 5/13/19 9/18/20
f 5/13/21 6/14/22 9/18/23
f 6/14/24 7/15/25 9/18/26
f 7/15/27 8/16/28 9/18/29
f 8/16/30 1/17/31 9/18/32
s 1
f 1/1/33 8/8/34 18/27/35 19/28/36
s 2
f 8/8/37 7/7/38 25/34/39 18/27/40
s 3
f 7/7/41 6/6/42 24/33/43 25/34/44
s 4
f 6/6/45 5/5/46 23/32/47 24/33/48
s 5
f 5/5/49 4/4/50 22/31/51 23/32/52
s 6
f 4/4/53 3/3/54 21/30/55 22/31/56
s 7
f 3/3/57 2/2/58 20/29/59 21/30/60
s 8
f 2/2/61 1/1/62 19/28/63 20/29/64
s 1
f 19/28/36 18/27/35 10/20/65 11/19/66
s 8
f 20/29/64 19/28/63 11/19/67 17/26/68
s 7
f 21/30/60 20/29/59 17/26/69 16/25/70
s 6
f 22/31/56 21/30/55 16/25/71 15/24/72
s 5
f 23/32/52 22/31/51 15/24/73 14/23/74
s 4
f 24/33/48 23/32/47 14/23/75 13/22/76
s 3
f 25/34/44 24/33/43 13/22/77 12/21/78
s 2
f 18/27/40 25/34/39 12/21/79 10/20/80
