# This file uses centimeters as units for non-parametric coordinates.

mtllib ammo.mtl
g default
v -0.194248 -0.000698 0.128494
v 0.194248 -0.000698 0.128494
v -0.194248 0.165194 0.128494
v 0.194248 0.165194 0.128494
v -0.194248 0.165194 -0.128494
v 0.194248 0.165194 -0.128494
v -0.194248 -0.000698 -0.128494
v 0.194248 -0.000698 -0.128494
v -0.178055 0.165194 0.117783
v 0.178055 0.165194 0.117783
v 0.178055 0.165194 -0.117783
v -0.178055 0.165194 -0.117783
v -0.178055 0.137165 0.117783
v 0.178055 0.137165 0.117783
v 0.178055 0.137165 -0.117783
v -0.178055 0.137165 -0.117783
v -0.194248 0.360956 0.061706
v 0.194248 0.360956 0.061706
v -0.178055 0.341080 0.061706
v 0.178055 0.341080 0.061706
v -0.059184 0.332245 0.113810
v 0.059184 0.332245 0.113810
v -0.054176 0.326837 0.109765
v 0.054176 0.326837 0.109765
vt 0.147486 0.673374
vt 0.453964 0.673374
vt 0.022281 0.000281
vt 0.022281 0.673374
vt 0.226908 0.011069
vt 0.852821 0.926674
vt 0.852536 0.748724
vt 0.852287 0.479718
vt 0.475504 0.215610
vt 0.186797 0.215539
vt 0.147486 0.194997
vt 0.147486 0.481750
vt 0.831649 0.926706
vt 0.831167 0.301764
vt 0.175482 0.215537
vt 0.283653 0.440974
vt 0.371255 0.440996
vt 0.587582 0.429928
vt 0.283653 0.440974
vt 0.494592 0.215614
vt 0.475449 0.441021
vt 0.186742 0.440951
vt 0.494540 0.429906
vt 0.175428 0.440948
vt 0.852339 0.301784
vt 0.226878 0.189014
vt 0.495882 0.189059
vt 0.495912 0.011114
vt 0.022281 0.967625
vt 0.147486 0.967625
vt 0.147486 0.000281
vt -0.002833 0.012130
vt 0.831364 0.748757
vt 0.371255 0.440996
vt 0.670225 0.429948
vt 0.766197 0.429972
vt 0.475449 0.441021
vt 0.831115 0.479728
vt 0.022281 0.481750
vt 0.022281 0.194997
vt -0.002833 0.190613
vt 0.766250 0.215680
vt 0.453964 0.481750
vt 0.022281 0.683289
vt 0.022281 0.501787
vt 0.022281 0.948487
vt 0.831503 0.032743
vt 0.852675 0.032771
vn 0.000000 0.000000 1.000000
vn 0.000000 0.000000 1.000000
vn 0.000000 0.000000 1.000000
vn 0.000000 0.000000 1.000000
vn 0.000000 1.000000 0.000000
vn 0.000000 1.000000 0.000000
vn 0.000000 1.000000 0.000000
vn 0.000000 1.000000 0.000000
vn 0.000000 0.465470 -0.885064
vn 0.000000 0.465470 -0.885064
vn 0.000000 0.000000 -1.000000
vn 0.000000 0.000000 -1.000000
vn 0.000000 -1.000000 0.000000
vn 0.000000 -1.000000 0.000000
vn 0.000000 -1.000000 0.000000
vn 0.000000 -1.000000 0.000000
vn 1.000000 0.000000 0.000000
vn 1.000000 0.000000 0.000000
vn 1.000000 0.000000 0.000000
vn 1.000000 0.000000 0.000000
vn -1.000000 0.000000 0.000000
vn -1.000000 0.000000 0.000000
vn -1.000000 0.000000 0.000000
vn -1.000000 0.000000 0.000000
vn 0.000000 1.000000 0.000002
vn 0.000000 1.000000 0.000002
vn 0.000000 1.000000 0.000002
vn 0.000000 1.000000 0.000002
vn 0.000001 1.000000 0.000000
vn 0.000001 1.000000 0.000000
vn 0.000001 1.000000 0.000000
vn 0.000001 1.000000 0.000000
vn 0.000000 -0.598972 0.800770
vn 0.000000 -0.598972 0.800770
vn 0.000000 -0.598972 0.800770
vn 0.000000 -0.598972 0.800770
vn -0.000001 1.000000 0.000000
vn -0.000001 1.000000 0.000000
vn -0.000001 1.000000 0.000000
vn -0.000001 1.000000 0.000000
vn 0.000000 0.000000 -1.000000
vn 0.000000 0.000000 -1.000000
vn 0.000000 0.000000 -1.000000
vn 0.000000 0.000000 -1.000000
vn -1.000000 0.000000 0.000000
vn -1.000000 0.000000 0.000000
vn -1.000000 0.000000 0.000000
vn -1.000000 0.000000 0.000000
vn 0.000000 -0.660717 0.750635
vn 0.000000 -0.660717 0.750635
vn 0.000000 0.000000 1.000000
vn 0.000000 0.000000 1.000000
vn 1.000000 0.000000 0.000000
vn 1.000000 0.000000 0.000000
vn 1.000000 0.000000 0.000000
vn 1.000000 0.000000 0.000000
vn 0.000000 0.696845 -0.717221
vn 0.000000 0.696845 -0.717221
vn -0.555063 -0.586621 0.589730
vn -0.555063 -0.586621 0.589730
vn -0.555063 -0.586621 0.589730
vn -0.555063 -0.586621 0.589730
vn 0.000000 -0.714238 0.699903
vn 0.000000 -0.714238 0.699903
vn 0.555063 -0.586621 0.589730
vn 0.555063 -0.586621 0.589730
vn 0.555063 -0.586621 0.589730
vn 0.555063 -0.586621 0.589730
vn 0.000000 0.875838 0.482606
vn 0.000000 0.875838 0.482606
vn 0.000000 0.875838 0.482606
vn 0.000000 0.875838 0.482606
vn -0.386030 -0.452326 0.803979
vn -0.386030 -0.452326 0.803979
vn -0.386030 -0.452326 0.803979
vn -0.386030 -0.452326 0.803979
vn 0.000000 -0.958782 -0.284144
vn 0.000000 -0.958782 -0.284144
vn 0.000000 -0.958782 -0.284144
vn 0.000000 -0.958782 -0.284144
vn 0.386030 -0.452326 0.803979
vn 0.386030 -0.452326 0.803979
vn 0.386030 -0.452326 0.803979
vn 0.386030 -0.452326 0.803979
s off
g pCube1
usemtl lambert2SG
f 1/1/1 2/30/2 4/29/3 3/4/4
f 13/5/5 14/28/6 15/27/7 16/26/8
s 1
f 5/39/9 6/40/10 8/11/11 7/12/12
s off
f 7/12/13 8/43/14 2/2/15 1/1/16
f 2/31/17 8/11/18 6/40/19 4/3/20
f 7/12/21 1/1/22 3/4/23 5/39/24
f 3/4/25 4/29/26 10/46/27 9/44/28
f 4/3/29 6/40/30 11/41/31 10/32/32
f 22/16/33 21/17/34 23/34/35 24/19/36
f 5/39/37 3/4/38 9/44/39 12/45/40
f 9/14/41 10/47/42 14/48/43 13/25/44
f 10/13/45 11/33/46 15/7/47 14/6/48
s 2
f 11/33/49 12/38/50 16/8/51 15/7/52
s off
f 12/38/53 9/14/54 13/25/55 16/8/56
s 1
f 6/10/10 5/9/9 17/21/57 18/22/58
s off
f 5/9/59 12/20/60 19/23/61 17/21/62
s 2
f 12/20/50 11/42/49 20/36/63 19/23/64
s off
f 11/15/65 6/10/66 18/22/67 20/24/68
f 18/22/69 17/21/70 21/17/71 22/16/72
f 17/21/73 19/37/74 23/34/75 21/17/76
f 19/23/77 20/36/78 24/35/79 23/18/80
f 20/24/81 18/22/82 22/16/83 24/19/84
