# This file uses meters as units for non-parametric coordinates.

mtllib fishingrod_Handle.mtl
g default
v 7.531887 22.714199 0.760223
v 12.671782 22.714199 0.760223
v 7.531887 23.075163 0.399262
v 7.531887 22.714199 0.249747
v 12.671784 23.075163 0.399262
v 12.671784 22.714199 0.249747
v 7.531887 22.353235 0.399262
v 12.671784 22.353235 0.399262
v 7.531887 22.203728 0.760223
v 12.671784 22.203728 0.760223
v 7.531887 22.353235 1.121184
v 12.671784 22.353235 1.121184
v 7.531887 22.714199 1.270699
v 12.671784 22.714199 1.270699
v 7.531887 23.075163 1.121184
v 12.671784 23.075163 1.121184
v 7.531887 23.224680 0.760223
v 12.671784 23.224680 0.760223
vt 0.668845 0.778630
vt 0.712813 0.978357
vt 0.647045 0.491838
vt 0.735510 0.321500
vt 0.690645 0.778630
vt 0.673140 0.321500
vt 0.712445 0.778630
vt 0.629039 0.365604
vt 0.734244 0.778630
vt 0.629037 0.427972
vt 0.756045 0.778630
vt 0.673140 0.472075
vt 0.777845 0.778630
vt 0.735511 0.472075
vt 0.625244 0.778630
vt 0.779613 0.427973
vt 0.712813 0.890845
vt 0.704328 0.396787
vt 0.799645 0.491838
vt 0.625244 0.491838
vt 0.779613 0.365602
vt 0.799645 0.778630
vt 0.774695 0.952727
vt 0.647045 0.778630
vt 0.777845 0.491838
vt 0.800328 0.890846
vt 0.756045 0.491838
vt 0.774697 0.828965
vt 0.734244 0.491838
vt 0.712817 0.803331
vt 0.712445 0.491838
vt 0.650937 0.828963
vt 0.690645 0.491838
vt 0.625303 0.890842
vt 0.668845 0.491838
vt 0.650933 0.952723
vn 0.000000 0.382681 -0.923881
vn 0.000000 0.382681 -0.923881
vn 0.000000 0.382681 -0.923881
vn 0.000000 0.382681 -0.923881
vn 0.000000 -0.382681 -0.923881
vn 0.000000 -0.382681 -0.923881
vn 0.000000 -0.382681 -0.923881
vn 0.000000 -0.382681 -0.923881
vn 0.000000 -0.923886 -0.382668
vn 0.000000 -0.923886 -0.382668
vn 0.000000 -0.923886 -0.382668
vn 0.000000 -0.923886 -0.382668
vn 0.000000 -0.923886 0.382668
vn 0.000000 -0.923886 0.382668
vn 0.000000 -0.923886 0.382668
vn 0.000000 -0.923886 0.382668
vn 0.000000 -0.382681 0.923881
vn 0.000000 -0.382681 0.923881
vn 0.000000 -0.382681 0.923881
vn 0.000000 -0.382681 0.923881
vn 0.000000 0.382681 0.923881
vn 0.000000 0.382681 0.923881
vn 0.000000 0.382681 0.923881
vn 0.000000 0.382681 0.923881
vn 0.000000 0.923878 0.382688
vn 0.000000 0.923878 0.382688
vn 0.000000 0.923878 0.382688
vn 0.000000 0.923878 0.382688
vn 0.000000 0.923878 -0.382688
vn 0.000000 0.923878 -0.382688
vn 0.000000 0.923878 -0.382688
vn 0.000000 0.923878 -0.382688
vn -1.000000 0.000000 0.000000
vn -1.000000 0.000000 0.000000
vn -1.000000 0.000000 0.000000
vn 1.000000 0.000000 -0.000000
vn 1.000000 0.000000 0.000004
vn 1.000000 -0.000003 0.000003
vn -1.000000 0.000000 0.000000
vn 1.000000 0.000003 0.000003
vn -1.000000 0.000000 0.000000
vn 1.000000 0.000005 -0.000000
vn -1.000000 0.000000 0.000000
vn 1.000000 0.000005 -0.000003
vn -1.000000 0.000000 0.000000
vn 1.000000 0.000000 -0.000004
vn -1.000000 0.000000 0.000000
vn 1.000000 -0.000005 -0.000003
vn -1.000000 0.000000 0.000000
vn 1.000000 -0.000005 0.000000
s off
g SpoolHandle Spool_grp Fishingrod_grp
usemtl lambert2SG
f 4/1/1 3/24/2 5/3/3 6/35/4
f 7/5/5 4/1/6 6/35/7 8/33/8
f 9/7/9 7/5/10 8/33/11 10/31/12
f 11/9/13 9/7/14 10/31/15 12/29/16
f 13/11/17 11/9/18 12/29/19 14/27/20
f 15/13/21 13/11/22 14/27/23 16/25/24
f 17/22/25 15/13/26 16/25/27 18/19/28
f 3/24/29 17/15/30 18/20/31 5/3/32
s 1
f 1/17/33 3/2/34 4/36/35
s 2
f 2/18/36 6/4/37 5/21/38
s 1
f 1/17/33 4/36/35 7/34/39
s 2
f 2/18/36 8/6/40 6/4/37
s 1
f 1/17/33 7/34/39 9/32/41
s 2
f 2/18/36 10/8/42 8/6/40
s 1
f 1/17/33 9/32/41 11/30/43
s 2
f 2/18/36 12/10/44 10/8/42
s 1
f 1/17/33 11/30/43 13/28/45
s 2
f 2/18/36 14/12/46 12/10/44
s 1
f 1/17/33 13/28/45 15/26/47
s 2
f 2/18/36 16/14/48 14/12/46
s 1
f 1/17/33 15/26/47 17/23/49
s 2
f 2/18/36 18/16/50 16/14/48
s 1
f 1/17/33 17/23/49 3/2/34
s 2
f 2/18/36 5/21/38 18/16/50
