# This file uses meters as units for non-parametric coordinates.

mtllib fishingrod_spool.mtl
g default
v 3.390927 20.420937 0.000000
v 7.043515 20.420937 0.000000
v 3.390928 21.483801 -1.062871
v 3.390928 20.420937 -1.503127
v 7.043516 21.483801 -1.062871
v 7.043516 20.420937 -1.503127
v 3.390928 19.358065 -1.062871
v 7.043516 19.358065 -1.062871
v 3.390928 18.917803 0.000000
v 7.043516 18.917803 0.000000
v 3.390928 19.358065 1.062871
v 7.043516 19.358065 1.062871
v 3.390928 20.420937 1.503127
v 7.043516 20.420937 1.503127
v 3.390928 21.483801 1.062871
v 7.043516 21.483801 1.062871
v 3.390928 21.924055 0.000000
v 7.043516 21.924055 0.000000
vt 0.863484 0.640438
vt 0.851572 0.885308
vt 0.993650 0.599440
vt 0.993221 0.423979
vt 0.863484 0.681437
vt 0.993221 0.363245
vt 0.863484 0.722435
vt 0.950276 0.320300
vt 0.863484 0.763433
vt 0.889542 0.320300
vt 0.863484 0.476445
vt 0.846596 0.363245
vt 0.863484 0.517444
vt 0.846596 0.423979
vt 0.863484 0.558442
vt 0.889541 0.466924
vt 0.922318 0.885308
vt 0.919910 0.393611
vt 0.993650 0.558442
vt 0.950275 0.466924
vt 0.872294 0.935332
vt 0.863484 0.599440
vt 0.993650 0.517444
vt 0.922319 0.956053
vt 0.993650 0.804431
vt 0.993650 0.476445
vt 0.863484 0.804431
vt 0.972343 0.935331
vt 0.993650 0.763433
vt 0.993063 0.885306
vt 0.993650 0.722435
vt 0.972342 0.835281
vt 0.993650 0.681437
vt 0.922316 0.814561
vt 0.993650 0.640438
vt 0.872292 0.835283
vn 0.000000 0.382686 -0.923878
vn 0.000000 0.382686 -0.923878
vn 0.000000 0.382686 -0.923878
vn 0.000000 0.382686 -0.923878
vn 0.000000 -0.382683 -0.923880
vn 0.000000 -0.382683 -0.923880
vn 0.000000 -0.382683 -0.923880
vn 0.000000 -0.382683 -0.923880
vn 0.000000 -0.923878 -0.382688
vn 0.000000 -0.923878 -0.382688
vn 0.000000 -0.923878 -0.382688
vn 0.000000 -0.923878 -0.382688
vn 0.000000 -0.923878 0.382688
vn 0.000000 -0.923878 0.382688
vn 0.000000 -0.923878 0.382688
vn 0.000000 -0.923878 0.382688
vn 0.000000 -0.382683 0.923880
vn 0.000000 -0.382683 0.923880
vn 0.000000 -0.382683 0.923880
vn 0.000000 -0.382683 0.923880
vn 0.000000 0.382686 0.923878
vn 0.000000 0.382686 0.923878
vn 0.000000 0.382686 0.923878
vn 0.000000 0.382686 0.923878
vn 0.000000 0.923880 0.382683
vn 0.000000 0.923880 0.382683
vn 0.000000 0.923880 0.382683
vn 0.000000 0.923880 0.382683
vn 0.000000 0.923880 -0.382683
vn 0.000000 0.923880 -0.382683
vn 0.000000 0.923880 -0.382683
vn 0.000000 0.923880 -0.382683
vn -1.000000 -0.000000 0.000000
vn -1.000000 0.000000 -0.000000
vn -1.000000 -0.000000 -0.000000
vn 1.000000 -0.000000 0.000000
vn 1.000000 0.000000 0.000000
vn 1.000000 -0.000000 0.000000
vn -1.000000 -0.000000 -0.000000
vn 1.000000 0.000000 0.000000
vn -1.000000 -0.000000 0.000000
vn 1.000000 0.000001 0.000000
vn -1.000000 -0.000000 0.000000
vn 1.000000 0.000000 -0.000000
vn -1.000000 0.000000 0.000000
vn 1.000000 0.000000 -0.000000
vn -1.000000 0.000000 0.000000
vn 1.000000 -0.000000 -0.000000
vn -1.000000 0.000000 0.000000
vn 1.000000 -0.000001 0.000000
s off
g Wire Spool_grp Fishingrod_grp
usemtl lambert2SG
f 4/1/1 3/22/2 5/3/3 6/35/4
f 7/5/5 4/1/6 6/35/7 8/33/8
f 9/7/9 7/5/10 8/33/11 10/31/12
f 11/9/13 9/7/14 10/31/15 12/29/16
f 13/27/17 11/9/18 12/29/19 14/25/20
f 15/13/21 13/11/22 14/26/23 16/23/24
f 17/15/25 15/13/26 16/23/27 18/19/28
f 3/22/29 17/15/30 18/19/31 5/3/32
s 1
f 1/17/33 3/2/34 4/36/35
s 2
f 2/18/36 6/4/37 5/20/38
s 1
f 1/17/33 4/36/35 7/34/39
s 2
f 2/18/36 8/6/40 6/4/37
s 1
f 1/17/33 7/34/39 9/32/41
s 2
f 2/18/36 10/8/42 8/6/40
s 1
f 1/17/33 9/32/41 11/30/43
s 2
f 2/18/36 12/10/44 10/8/42
s 1
f 1/17/33 11/30/43 13/28/45
s 2
f 2/18/36 14/12/46 12/10/44
s 1
f 1/17/33 13/28/45 15/24/47
s 2
f 2/18/36 16/14/48 14/12/46
s 1
f 1/17/33 15/24/47 17/21/49
s 2
f 2/18/36 18/16/50 16/14/48
s 1
f 1/17/33 17/21/49 3/2/34
s 2
f 2/18/36 5/20/38 18/16/50
