# This file uses centimeters as units for non-parametric coordinates.

mtllib carrot_stage1.mtl
g default
v -0.500000 0.001104 -0.000000
v 0.500000 0.001106 -0.000000
v -0.500002 1.001104 0.000000
v 0.499998 1.001105 0.000000
vt 0.000000 0.000000
vt 1.000000 0.000000
vt 0.000000 1.000000
vt 1.000000 1.000000
vn 0.000000 -0.000000 1.000000
vn 0.000000 -0.000000 1.000000
vn 0.000000 -0.000000 1.000000
vn 0.000000 -0.000000 1.000000
s off
g pPlane2
usemtl lambert2SG
f 1/1/1 2/2/2 4/4/3 3/3/4
g default
v -0.000000 0.001105 -0.500000
v -0.000000 0.001105 0.500000
v -0.000002 1.001104 -0.500000
v -0.000002 1.001105 0.500000
vt 0.000000 0.000000
vt 1.000000 0.000000
vt 0.000000 1.000000
vt 1.000000 1.000000
vn -1.000000 -0.000002 0.000000
vn -1.000000 -0.000002 0.000000
vn -1.000000 -0.000002 0.000000
vn -1.000000 -0.000002 0.000000
s off
g pPlane3
usemtl lambert2SG
f 5/5/5 6/6/6 8/8/7 7/7/8
