# This file uses centimeters as units for non-parametric coordinates.

mtllib hoe_tool.mtl
g default
v 0.018921 -0.552493 -0.018443
v 0.000000 -0.552493 -0.026082
v -0.018921 -0.552493 -0.018443
v -0.026823 -0.552493 0.000000
v -0.018921 -0.552493 0.018443
v 0.000000 -0.552493 0.026082
v 0.018921 -0.552493 0.018443
v 0.026823 -0.552493 0.000000
v 0.018921 0.595552 -0.018443
v 0.000000 0.595552 -0.026082
v -0.018921 0.595552 -0.018443
v -0.026823 0.595552 0.000000
v -0.018921 0.595552 0.018443
v 0.000000 0.595552 0.026082
v 0.018921 0.595552 0.018443
v 0.026823 0.595552 0.000000
v 0.000000 -0.552493 0.000000
v 0.011404 0.696851 -0.011176
v 0.000000 0.696851 -0.015805
v -0.011404 0.696851 -0.011176
v -0.016193 0.696851 0.000000
v -0.011404 0.696851 0.011176
v 0.000000 0.696851 0.015805
v 0.011404 0.696851 0.011176
v 0.016193 0.696851 0.000000
v 0.009913 0.696851 -0.009913
v 0.000000 0.696851 -0.014019
v -0.009913 0.696851 -0.009913
v -0.014019 0.696851 -0.000000
v -0.009913 0.696851 0.009913
v 0.000000 0.696851 0.014019
v 0.009913 0.696851 0.009913
v 0.014019 0.696851 -0.000000
v 0.009913 0.866476 -0.009913
v 0.000000 0.866476 -0.014019
v -0.009913 0.866476 -0.009913
v -0.014019 0.866476 -0.000000
v -0.009913 0.866476 0.009913
v 0.000000 0.866476 0.014019
v 0.009913 0.866476 0.009913
v 0.014019 0.866476 -0.000000
v 0.009913 0.890207 -0.001351
v 0.000000 0.892334 -0.004863
v -0.009913 0.890207 -0.001351
v -0.014019 0.885073 0.007129
v -0.009913 0.879939 0.015609
v 0.000000 0.877812 0.019121
v 0.009913 0.879939 0.015609
v 0.014019 0.885073 0.007129
v 0.009913 0.913245 0.016148
v 0.000000 0.916542 0.013701
v -0.009913 0.913245 0.016148
v -0.014019 0.905285 0.022056
v -0.009913 0.897325 0.027963
v -0.000000 0.894027 0.030410
v 0.009913 0.897325 0.027963
v 0.014019 0.905285 0.022055
v 0.009913 0.924784 0.039960
v 0.000000 0.928686 0.038682
v -0.009913 0.924784 0.039960
v -0.014019 0.915363 0.043046
v -0.009913 0.905943 0.046131
v -0.000000 0.902041 0.047410
v 0.009913 0.905943 0.046131
v 0.014019 0.915364 0.043046
v 0.009913 0.924683 0.098782
v -0.000000 0.928654 0.098782
v -0.009912 0.924683 0.098782
v -0.014019 0.915096 0.098782
v -0.009912 0.905508 0.098782
v 0.000000 0.901536 0.098782
v 0.009913 0.905508 0.098782
v 0.014019 0.915096 0.098782
v 0.009913 0.924683 0.135421
v -0.000000 0.928654 0.135421
v 0.000000 0.915096 0.144489
v -0.009912 0.924683 0.135421
v -0.014019 0.915096 0.135421
v 0.014019 0.915096 0.135421
v -0.106390 0.906552 0.272828
v -0.106390 0.899928 0.272828
v 0.000000 0.906552 0.315420
v -0.000002 0.899927 0.315420
v 0.106390 0.899928 0.272828
v 0.106390 0.906552 0.272828
v -0.120993 0.906552 0.098782
v -0.120993 0.899927 0.098782
v -0.000002 0.899927 0.098782
v 0.120993 0.899927 0.098782
v 0.120993 0.906552 0.098782
vt 0.124242 0.032264
vt 0.136498 0.031674
vt 0.041005 0.742299
vt 0.127959 0.741845
vt 0.053968 0.032430
vt 0.053584 0.742017
vt 0.065712 0.032920
vt 0.065927 0.741805
vt 0.077326 0.033274
vt 0.078252 0.741666
vt 0.089094 0.033400
vt 0.090776 0.741597
vt 0.100867 0.033241
vt 0.103300 0.741596
vt 0.112489 0.032842
vt 0.115621 0.741666
vt 0.089182 0.021536
vt 0.250872 0.936683
vt 0.246512 0.937248
vt 0.246500 0.929388
vt 0.242138 0.936684
vt 0.237383 0.934906
vt 0.246580 0.672621
vt 0.180893 0.849972
vt 0.312148 0.692226
vt 0.246543 0.676667
vt 0.180663 0.691053
vt 0.177109 0.689784
vt 0.255638 0.934901
vt 0.061914 0.805811
vt 0.112466 0.804528
vt 0.069198 0.804609
vt 0.076330 0.803952
vt 0.083527 0.803733
vt 0.090841 0.803695
vt 0.098152 0.803706
vt 0.105340 0.803897
vt 0.062909 0.806195
vt 0.112017 0.805608
vt 0.069647 0.805688
vt 0.076632 0.805260
vt 0.083725 0.804945
vt 0.090845 0.804817
vt 0.097961 0.804921
vt 0.105042 0.805209
vt 0.063905 0.909794
vt 0.111419 0.909732
vt 0.070545 0.909705
vt 0.077259 0.909974
vt 0.084067 0.910378
vt 0.090967 0.910584
vt 0.097873 0.910393
vt 0.104694 0.909998
vt 0.064049 0.924190
vt 0.111253 0.922703
vt 0.070677 0.922553
vt 0.077369 0.921309
vt 0.084101 0.920456
vt 0.090963 0.920151
vt 0.097831 0.920517
vt 0.104565 0.921424
vt 0.064765 0.939700
vt 0.110799 0.937767
vt 0.071051 0.937409
vt 0.077505 0.935869
vt 0.084134 0.934985
vt 0.090931 0.934658
vt 0.097724 0.935124
vt 0.104353 0.936134
vt 0.065898 0.951260
vt 0.109418 0.950739
vt 0.072226 0.950164
vt 0.078294 0.949579
vt 0.084407 0.949307
vt 0.090805 0.949239
vt 0.097211 0.949499
vt 0.103342 0.949961
vt 0.246508 0.955815
vt 0.251567 0.955929
vt 0.241454 0.955916
vt 0.253873 0.812199
vt 0.252931 0.806321
vt 0.245398 0.804359
vt 0.238020 0.806337
vt 0.256751 0.956274
vt 0.322713 0.804584
vt 0.318619 0.804554
vt 0.245406 0.803360
vt 0.172116 0.803323
vt 0.321496 0.956235
vt 0.100986 0.983446
vt 0.106764 0.984546
vt 0.095530 0.982686
vt 0.090099 0.982436
vt 0.084663 0.982484
vt 0.079177 0.983019
vt 0.073353 0.983857
vt 0.067019 0.984712
vt 0.113050 0.985724
vt 0.115722 0.952053
vt 0.117076 0.940078
vt 0.117879 0.924343
vt 0.118063 0.909810
vt 0.118752 0.806090
vt 0.119750 0.805712
vt 0.140531 0.742095
vt 0.172255 0.807442
vt 0.168023 0.803278
vt 0.312153 0.849729
vt 0.236943 0.812197
vt 0.318411 0.808670
vt 0.171673 0.956263
vt 0.315721 0.691019
vt 0.236281 0.956251
vt 0.246075 0.823516
vt 0.041719 0.031889
vn 0.374384 0.000000 -0.927274
vn 0.374384 0.000000 -0.927274
vn 0.374384 0.000000 -0.927274
vn 0.374384 0.000000 -0.927274
vn -0.374384 0.000000 -0.927274
vn -0.374384 0.000000 -0.927274
vn -0.374384 0.000000 -0.927274
vn -0.374384 0.000000 -0.927274
vn -0.919179 0.000000 -0.393839
vn -0.919179 0.000000 -0.393839
vn -0.919179 0.000000 -0.393839
vn -0.919179 0.000000 -0.393839
vn -0.919179 0.000000 0.393839
vn -0.919179 0.000000 0.393839
vn -0.919179 0.000000 0.393839
vn -0.919179 0.000000 0.393839
vn -0.374384 0.000000 0.927274
vn -0.374384 0.000000 0.927274
vn -0.374384 0.000000 0.927274
vn -0.374384 0.000000 0.927274
vn 0.374383 0.000000 0.927274
vn 0.374383 0.000000 0.927274
vn 0.374383 0.000000 0.927274
vn 0.374383 0.000000 0.927274
vn 0.919179 0.000000 0.393839
vn 0.919179 0.000000 0.393839
vn 0.919179 0.000000 0.393839
vn 0.919179 0.000000 0.393839
vn 0.919179 0.000000 -0.393840
vn 0.919179 0.000000 -0.393840
vn 0.919179 0.000000 -0.393840
vn 0.919179 0.000000 -0.393840
vn 0.000000 -1.000000 0.000000
vn 0.000000 -1.000000 0.000000
vn 0.000000 -1.000000 0.000000
vn 0.000000 -1.000000 0.000002
vn 0.000000 -1.000000 0.000002
vn 0.000000 -1.000000 0.000000
vn 0.000000 -1.000000 0.000000
vn 0.000000 -1.000000 0.000000
vn 0.000000 -1.000000 0.000000
vn 0.385102 0.392080 0.835446
vn -0.000001 0.555950 0.831215
vn 0.000003 0.430184 0.902741
vn -0.385104 0.392071 0.835449
vn -0.529017 0.226579 0.817804
vn 0.000075 -0.000048 1.000000
vn -0.371663 0.000015 0.928368
vn -0.371663 0.000015 0.928368
vn -0.000075 -0.000048 1.000000
vn 0.371659 -0.000104 0.928370
vn 0.371659 -0.000104 0.928369
vn 0.529015 0.226590 0.817802
vn 0.373386 0.093775 -0.922924
vn 0.373386 0.093775 -0.922924
vn 0.373386 0.093775 -0.922924
vn 0.373386 0.093775 -0.922924
vn -0.373386 0.093775 -0.922924
vn -0.373386 0.093775 -0.922924
vn -0.373386 0.093775 -0.922924
vn -0.373386 0.093775 -0.922924
vn -0.914932 0.096017 -0.392020
vn -0.914932 0.096017 -0.392020
vn -0.914932 0.096017 -0.392020
vn -0.914932 0.096017 -0.392020
vn -0.914932 0.096017 0.392020
vn -0.914932 0.096017 0.392020
vn -0.914932 0.096017 0.392020
vn -0.914932 0.096017 0.392020
vn -0.373386 0.093775 0.922924
vn -0.373386 0.093775 0.922924
vn -0.373386 0.093775 0.922924
vn -0.373386 0.093775 0.922924
vn 0.373386 0.093775 0.922924
vn 0.373386 0.093775 0.922924
vn 0.373386 0.093775 0.922924
vn 0.373386 0.093775 0.922924
vn 0.914932 0.096017 0.392020
vn 0.914932 0.096017 0.392020
vn 0.914932 0.096017 0.392020
vn 0.914932 0.096017 0.392020
vn 0.914932 0.096017 -0.392020
vn 0.914932 0.096017 -0.392020
vn 0.914932 0.096017 -0.392020
vn 0.914932 0.096017 -0.392020
vn 0.000000 1.000000 0.000006
vn 0.000000 1.000000 0.000006
vn 0.000000 1.000000 0.000006
vn 0.000000 1.000000 0.000006
vn 0.000000 1.000000 0.000005
vn 0.000000 1.000000 0.000005
vn 0.000000 1.000000 0.000005
vn 0.000000 1.000000 0.000005
vn 0.000000 1.000000 0.000000
vn 0.000000 1.000000 0.000000
vn 0.000000 1.000000 0.000000
vn 0.000000 1.000000 0.000000
vn 0.000000 1.000000 0.000005
vn 0.000000 1.000000 0.000005
vn 0.000000 1.000000 0.000005
vn 0.000000 1.000000 0.000005
vn 0.000000 1.000000 -0.000006
vn 0.000000 1.000000 -0.000006
vn 0.000000 1.000000 -0.000006
vn 0.000000 1.000000 -0.000006
vn 0.000000 1.000000 0.000005
vn 0.000000 1.000000 0.000005
vn 0.000000 1.000000 0.000005
vn 0.000000 1.000000 0.000005
vn 0.000000 1.000000 -0.000005
vn 0.000000 1.000000 -0.000005
vn 0.000000 1.000000 -0.000005
vn 0.000000 1.000000 -0.000005
vn 0.000000 1.000000 0.000011
vn 0.000000 1.000000 0.000011
vn 0.000000 1.000000 0.000011
vn 0.000000 1.000000 0.000011
vn 0.382684 0.000000 -0.923879
vn 0.382684 0.000000 -0.923879
vn 0.382684 0.000000 -0.923879
vn 0.382684 0.000000 -0.923879
vn -0.382684 0.000000 -0.923879
vn -0.382684 0.000000 -0.923879
vn -0.382684 0.000000 -0.923879
vn -0.382684 0.000000 -0.923879
vn -0.923879 0.000000 -0.382685
vn -0.923879 0.000000 -0.382685
vn -0.923879 0.000000 -0.382685
vn -0.923879 0.000000 -0.382685
vn -0.923879 0.000000 0.382684
vn -0.923879 0.000000 0.382684
vn -0.923879 0.000000 0.382684
vn -0.923879 0.000000 0.382684
vn -0.382684 0.000000 0.923879
vn -0.382684 0.000000 0.923879
vn -0.382684 0.000000 0.923879
vn -0.382684 0.000000 0.923879
vn 0.382684 0.000000 0.923879
vn 0.382684 0.000000 0.923879
vn 0.382684 0.000000 0.923879
vn 0.382684 0.000000 0.923879
vn 0.923879 0.000000 0.382684
vn 0.923879 0.000000 0.382684
vn 0.923879 0.000000 0.382684
vn 0.923879 0.000000 0.382684
vn 0.923879 0.000000 -0.382685
vn 0.923879 0.000000 -0.382685
vn 0.923879 0.000000 -0.382685
vn 0.923879 0.000000 -0.382685
vn 0.369754 0.312614 -0.874960
vn 0.369754 0.312614 -0.874960
vn 0.376579 0.451268 -0.809040
vn 0.376527 0.448438 -0.810636
vn -0.369756 0.312615 -0.874959
vn -0.369756 0.312614 -0.874959
vn -0.376527 0.448439 -0.810636
vn -0.376580 0.451269 -0.809039
vn -0.918159 0.137716 -0.371507
vn -0.918159 0.137716 -0.371507
vn -0.920963 0.189811 -0.340294
vn -0.921013 0.192369 -0.338718
vn -0.917806 -0.147459 0.368630
vn -0.917806 -0.147459 0.368630
vn -0.920360 -0.194323 0.339376
vn -0.920404 -0.196210 0.338169
vn -0.367497 -0.371277 0.852701
vn -0.367497 -0.371277 0.852701
vn -0.372991 -0.470798 0.799517
vn -0.373029 -0.472007 0.798786
vn 0.367497 -0.371278 0.852701
vn 0.367497 -0.371278 0.852701
vn 0.373029 -0.472007 0.798785
vn 0.372991 -0.470798 0.799517
vn 0.917806 -0.147459 0.368630
vn 0.917806 -0.147459 0.368630
vn 0.920405 -0.196208 0.338166
vn 0.920361 -0.194321 0.339374
vn 0.918160 0.137716 -0.371506
vn 0.918160 0.137716 -0.371506
vn 0.921012 0.192369 -0.338720
vn 0.920962 0.189812 -0.340296
vn 0.385732 0.709516 -0.589743
vn 0.385679 0.706394 -0.593514
vn -0.385680 0.706394 -0.593514
vn -0.385732 0.709516 -0.589744
vn -0.925210 0.288953 -0.245951
vn -0.925268 0.292371 -0.241657
vn -0.925415 -0.287234 0.247192
vn -0.925483 -0.291224 0.242217
vn -0.387003 -0.698912 0.601457
vn -0.387084 -0.703473 0.596064
vn 0.387078 -0.703476 0.596063
vn 0.386997 -0.698916 0.601456
vn 0.925487 -0.291219 0.242210
vn 0.925419 -0.287229 0.247184
vn 0.925265 0.292375 -0.241663
vn 0.925208 0.288957 -0.245957
vn 0.379330 0.915681 -0.132805
vn 0.378915 0.916954 -0.124973
vn -0.378918 0.916953 -0.124975
vn -0.379334 0.915679 -0.132807
vn -0.922032 0.384177 -0.047587
vn -0.922490 0.381981 -0.055705
vn -0.921775 -0.385294 0.043352
vn -0.922261 -0.383119 0.051520
vn -0.377573 -0.920564 0.100004
vn -0.378048 -0.919477 0.107897
vn 0.378022 -0.919488 0.107894
vn 0.377547 -0.920575 0.100001
vn 0.922267 -0.383105 0.051511
vn 0.921781 -0.385280 0.043343
vn 0.922485 0.381992 -0.055709
vn 0.922028 0.384188 -0.047591
vn 0.369033 0.929416 0.001038
vn 0.369033 0.929416 0.001038
vn -0.369037 0.929414 0.001038
vn -0.369037 0.929414 0.001038
vn -0.917905 0.396799 0.001285
vn -0.917905 0.396799 0.001285
vn -0.917818 -0.396992 -0.002568
vn -0.917818 -0.396992 -0.002568
vn -0.368673 -0.929521 -0.008397
vn -0.368673 -0.929521 -0.008397
vn 0.368642 -0.929534 -0.008401
vn 0.368642 -0.929534 -0.008401
vn 0.917825 -0.396976 -0.002575
vn 0.917825 -0.396976 -0.002575
vn 0.917899 0.396812 0.001282
vn 0.917899 0.396812 0.001282
vn 0.371902 0.928272 0.000000
vn 0.371902 0.928272 0.000000
vn 0.371902 0.928272 0.000000
vn 0.371902 0.928272 0.000000
vn -0.371909 0.928269 0.000000
vn -0.371909 0.928269 0.000000
vn -0.371909 0.928269 0.000000
vn -0.371909 0.928269 0.000000
vn -0.919235 0.393710 0.000000
vn -0.919235 0.393710 0.000000
vn -0.919235 0.393710 0.000000
vn -0.919235 0.393710 0.000000
vn -0.996498 -0.000045 0.083612
vn -0.996498 -0.000045 0.083612
vn -0.996498 -0.000045 0.083612
vn -0.996498 -0.000045 0.083612
vn -0.000004 -1.000000 0.000000
vn -0.000004 -1.000000 0.000000
vn -0.000004 -1.000000 0.000000
vn -0.000004 -1.000000 0.000000
vn 0.000004 -1.000000 0.000000
vn 0.000004 -1.000000 0.000000
vn 0.000004 -1.000000 0.000000
vn 0.000004 -1.000000 0.000000
vn 0.996498 -0.000045 0.083612
vn 0.996498 -0.000045 0.083612
vn 0.996498 -0.000045 0.083612
vn 0.996498 -0.000045 0.083612
vn 0.919227 0.393728 0.000000
vn 0.919227 0.393728 0.000000
vn 0.919227 0.393728 0.000000
vn 0.919227 0.393728 0.000000
vn -0.000000 0.998797 0.049045
vn -0.059068 0.998016 0.021805
vn -0.041868 0.998540 0.034139
vn -0.000000 0.998797 0.049045
vn 0.059068 0.998016 0.021805
vn 0.041868 0.998540 0.034139
vn -0.000000 0.000004 -1.000000
vn -0.000000 0.000002 -1.000000
vn -0.000000 0.000004 -1.000000
vn -0.000000 0.000004 -1.000000
vn -0.081536 0.996654 0.005650
vn -0.081536 0.996654 0.005650
vn -0.000000 0.000000 -1.000000
vn -0.000000 0.000000 -1.000000
vn 0.000000 0.000002 -1.000000
vn 0.000000 0.000004 -1.000000
vn 0.000000 0.000004 -1.000000
vn 0.000000 0.000004 -1.000000
vn 0.081536 0.996654 0.005650
vn 0.081536 0.996654 0.005650
s off
g pCylinder1
usemtl lambert2SG
f 1/1/1 2/2/2 10/106/3 9/4/4
f 2/116/5 3/5/6 11/6/7 10/3/8
f 3/5/9 4/7/10 12/8/11 11/6/12
f 4/7/13 5/9/14 13/10/15 12/8/16
f 5/9/17 6/11/18 14/12/19 13/10/20
f 6/11/21 7/13/22 15/14/23 14/12/24
f 7/13/25 8/15/26 16/16/27 15/14/28
f 8/15/29 1/1/30 9/4/31 16/16/32
s 1
f 2/2/33 1/1/34 17/17/35
f 3/5/36 2/116/33 17/17/35
f 4/7/37 3/5/36 17/17/35
f 5/9/38 4/7/37 17/17/35
f 6/11/39 5/9/38 17/17/35
f 7/13/40 6/11/39 17/17/35
f 8/15/41 7/13/40 17/17/35
f 1/1/34 8/15/41 17/17/35
s 2
f 74/18/42 75/19/43 76/20/44
f 75/19/43 77/21/45 76/20/44
f 77/21/45 78/22/46 76/20/44
s 3
f 82/23/47 80/113/48 81/25/49 83/26/50
f 82/23/47 83/26/50 84/27/51 85/28/52
s 2
f 79/29/53 74/18/42 76/20/44
s off
f 9/4/54 10/106/55 19/105/56 18/31/57
f 10/3/58 11/6/59 20/32/60 19/30/61
f 11/6/62 12/8/63 21/33/64 20/32/65
f 12/8/66 13/10/67 22/34/68 21/33/69
f 13/10/70 14/12/71 23/35/72 22/34/73
f 14/12/74 15/14/75 24/36/76 23/35/77
f 15/14/78 16/16/79 25/37/80 24/36/81
f 16/16/82 9/4/83 18/31/84 25/37/85
f 18/31/86 19/105/87 27/104/88 26/39/89
f 19/30/90 20/32/91 28/40/92 27/38/93
f 20/32/94 21/33/95 29/41/96 28/40/97
f 21/33/98 22/34/99 30/42/100 29/41/101
f 22/34/102 23/35/103 31/43/104 30/42/105
f 23/35/106 24/36/107 32/44/108 31/43/109
f 24/36/110 25/37/111 33/45/112 32/44/113
f 25/37/114 18/31/115 26/39/116 33/45/117
f 26/39/118 27/104/119 35/103/120 34/47/121
f 27/38/122 28/40/123 36/48/124 35/46/125
f 28/40/126 29/41/127 37/49/128 36/48/129
f 29/41/130 30/42/131 38/50/132 37/49/133
f 30/42/134 31/43/135 39/51/136 38/50/137
f 31/43/138 32/44/139 40/52/140 39/51/141
f 32/44/142 33/45/143 41/53/144 40/52/145
f 33/45/146 26/39/147 34/47/148 41/53/149
s 4
f 34/47/150 35/103/151 43/102/152 42/55/153
s 5
f 35/46/154 36/48/155 44/56/156 43/54/157
s 6
f 36/48/158 37/49/159 45/57/160 44/56/161
s 7
f 37/49/162 38/50/163 46/58/164 45/57/165
s 8
f 38/50/166 39/51/167 47/59/168 46/58/169
s 9
f 39/51/170 40/52/171 48/60/172 47/59/173
s 10
f 40/52/174 41/53/175 49/61/176 48/60/177
s 11
f 41/53/178 34/47/179 42/55/180 49/61/181
s 4
f 42/55/153 43/102/152 51/101/182 50/63/183
s 5
f 43/54/157 44/56/156 52/64/184 51/62/185
s 6
f 44/56/161 45/57/160 53/65/186 52/64/187
s 7
f 45/57/165 46/58/164 54/66/188 53/65/189
s 8
f 46/58/169 47/59/168 55/67/190 54/66/191
s 9
f 47/59/173 48/60/172 56/68/192 55/67/193
s 10
f 48/60/177 49/61/176 57/69/194 56/68/195
s 11
f 49/61/181 42/55/180 50/63/196 57/69/197
s 4
f 50/63/183 51/101/182 59/100/198 58/71/199
s 5
f 51/62/185 52/64/184 60/72/200 59/70/201
s 6
f 52/64/187 53/65/186 61/73/202 60/72/203
s 7
f 53/65/189 54/66/188 62/74/204 61/73/205
s 8
f 54/66/191 55/67/190 63/75/206 62/74/207
s 9
f 55/67/193 56/68/192 64/76/208 63/75/209
s 10
f 56/68/195 57/69/194 65/77/210 64/76/211
s 11
f 57/69/197 50/63/196 58/71/212 65/77/213
s 4
f 58/71/199 59/100/198 67/99/214 66/92/215
s 5
f 59/70/201 60/72/200 68/97/216 67/98/217
s 6
f 60/72/203 61/73/202 69/96/218 68/97/219
s 7
f 61/73/205 62/74/204 70/95/220 69/96/221
s 8
f 62/74/207 63/75/206 71/94/222 70/95/223
s 9
f 63/75/209 64/76/208 72/93/224 71/94/225
s 10
f 64/76/211 65/77/210 73/91/226 72/93/227
s 11
f 65/77/213 58/71/212 66/92/228 73/91/229
s off
f 66/79/230 67/78/231 75/19/232 74/18/233
f 67/78/234 68/80/235 77/21/236 75/19/237
f 68/80/238 69/114/239 78/22/240 77/21/241
f 86/86/242 87/87/243 81/25/244 80/113/245
f 87/87/246 88/88/247 83/26/248 81/25/249
f 88/88/250 89/89/251 84/27/252 83/26/253
f 89/89/254 90/108/255 85/28/256 84/27/257
f 73/85/258 66/79/259 74/18/260 79/29/261
s 12
f 76/20/262 78/22/263 80/24/264 82/115/265
f 79/29/266 76/20/262 82/115/265 85/109/267
s 13
f 69/81/268 70/82/269 87/87/270 86/111/271
s 12
f 78/22/263 69/114/272 86/112/273 80/24/264
s 13
f 70/82/269 71/83/274 88/88/275 87/87/270
f 71/83/274 72/84/276 89/89/277 88/88/275
f 72/84/276 73/110/278 90/107/279 89/89/277
s 12
f 73/85/280 79/29/266 85/109/267 90/90/281
