# This file uses centimeters as units for non-parametric coordinates.

mtllib hoe_tool.mtl
g default
v 0.018921 -0.552493 -0.018443
v 0.000000 -0.552493 -0.026082
v -0.018921 -0.552493 -0.018443
v -0.026823 -0.552493 0.000000
v -0.018921 -0.552493 0.018443
v 0.000000 -0.552493 0.026082
v 0.018921 -0.552493 0.018443
v 0.026823 -0.552493 0.000000
v 0.018921 0.595552 -0.018443
v 0.000000 0.595552 -0.026082
v -0.018921 0.595552 -0.018443
v -0.026823 0.595552 0.000000
v -0.018921 0.595552 0.018443
v 0.000000 0.595552 0.026082
v 0.018921 0.595552 0.018443
v 0.026823 0.595552 0.000000
v 0.000000 -0.552493 0.000000
v 0.011404 0.696851 -0.011176
v 0.000000 0.696851 -0.015805
v -0.011404 0.696851 -0.011176
v -0.016193 0.696851 0.000000
v -0.011404 0.696851 0.011176
v 0.000000 0.696851 0.015805
v 0.011404 0.696851 0.011176
v 0.016193 0.696851 0.000000
v 0.009913 0.696851 -0.009913
v 0.000000 0.696851 -0.014019
v -0.009913 0.696851 -0.009913
v -0.014019 0.696851 -0.000000
v -0.009913 0.696851 0.009913
v 0.000000 0.696851 0.014019
v 0.009913 0.696851 0.009913
v 0.014019 0.696851 -0.000000
v 0.009913 0.866476 -0.009913
v 0.000000 0.866476 -0.014019
v -0.009913 0.866476 -0.009913
v -0.014019 0.866476 -0.000000
v -0.009913 0.866476 0.009913
v 0.000000 0.866476 0.014019
v 0.009913 0.866476 0.009913
v 0.014019 0.866476 -0.000000
v 0.009913 0.890207 -0.001351
v 0.000000 0.892334 -0.004863
v -0.009913 0.890207 -0.001351
v -0.014019 0.885073 0.007129
v -0.009913 0.879939 0.015609
v 0.000000 0.877812 0.019121
v 0.009913 0.879939 0.015609
v 0.014019 0.885073 0.007129
v 0.009913 0.913245 0.016148
v 0.000000 0.916542 0.013701
v -0.009913 0.913245 0.016148
v -0.014019 0.905285 0.022056
v -0.009913 0.897325 0.027963
v -0.000000 0.894027 0.030410
v 0.009913 0.897325 0.027963
v 0.014019 0.905285 0.022055
v 0.009913 0.924784 0.039960
v 0.000000 0.928686 0.038682
v -0.009913 0.924784 0.039960
v -0.014019 0.915363 0.043046
v -0.009913 0.905943 0.046131
v -0.000000 0.902041 0.047410
v 0.009913 0.905943 0.046131
v 0.014019 0.915364 0.043046
v 0.009913 0.924683 0.098782
v -0.000000 0.928654 0.098782
v -0.009912 0.924683 0.098782
v -0.014019 0.915096 0.098782
v -0.009912 0.905508 0.098782
v 0.000000 0.901536 0.098782
v 0.009913 0.905508 0.098782
v 0.014019 0.915096 0.098782
v 0.009913 0.924683 0.135421
v -0.000000 0.928654 0.135421
v 0.000000 0.915096 0.144489
v -0.009912 0.924683 0.135421
v -0.014019 0.915096 0.135421
v 0.014019 0.915096 0.135421
v -0.106390 0.906552 0.272828
v -0.106390 0.899928 0.272828
v 0.000000 0.906552 0.315420
v -0.000002 0.899927 0.315420
v 0.106390 0.899928 0.272828
v 0.106390 0.906552 0.272828
v -0.120993 0.906552 0.098782
v -0.120993 0.899927 0.098782
v -0.000002 0.899927 0.098782
v 0.120993 0.899927 0.098782
v 0.120993 0.906552 0.098782
vt 0.610485 0.045765
vt 0.500000 0.000000
vt 0.389515 0.045765
vt 0.343750 0.156250
vt 0.389515 0.266735
vt 0.500000 0.312500
vt 0.610485 0.266735
vt 0.656250 0.156250
vt 0.375000 0.312500
vt 0.406250 0.312500
vt 0.437500 0.312500
vt 0.468750 0.312500
vt 0.500000 0.312500
vt 0.531250 0.312500
vt 0.562500 0.312500
vt 0.593750 0.312500
vt 0.625000 0.312500
vt 0.375000 0.687500
vt 0.406250 0.687500
vt 0.437500 0.687500
vt 0.468750 0.687500
vt 0.500000 0.687500
vt 0.531250 0.687500
vt 0.562500 0.687500
vt 0.593750 0.687500
vt 0.625000 0.687500
vt 0.610485 0.733265
vt 0.500000 0.687500
vt 0.389515 0.733265
vt 0.343750 0.843750
vt 0.389515 0.954235
vt 0.500000 1.000000
vt 0.610485 0.954235
vt 0.656250 0.843750
vt 0.500000 0.156250
vt 0.500000 0.843750
vt 0.610485 0.954235
vt 0.500000 1.000000
vt 0.389515 0.954235
vt 0.343750 0.843750
vt 0.389515 0.733265
vt 0.500000 0.687500
vt 0.610485 0.733265
vt 0.656250 0.843750
vt 0.610485 0.954235
vt 0.500000 1.000000
vt 0.389515 0.954235
vt 0.343750 0.843750
vt 0.389515 0.733265
vt 0.500000 0.687500
vt 0.610485 0.733265
vt 0.656250 0.843750
vt 0.610485 0.954235
vt 0.500000 1.000000
vt 0.389515 0.954235
vt 0.343750 0.843750
vt 0.389515 0.733265
vt 0.500000 0.687500
vt 0.610485 0.733265
vt 0.656250 0.843750
vt 0.610485 0.954235
vt 0.500000 1.000000
vt 0.389515 0.954235
vt 0.343750 0.843750
vt 0.389515 0.733265
vt 0.500000 0.687500
vt 0.610485 0.733265
vt 0.656250 0.843750
vt 0.610485 0.954235
vt 0.500000 1.000000
vt 0.389515 0.954235
vt 0.343750 0.843750
vt 0.389515 0.733265
vt 0.500000 0.687500
vt 0.610485 0.733265
vt 0.656250 0.843750
vt 0.610485 0.954235
vt 0.500000 1.000000
vt 0.389515 0.954235
vt 0.343750 0.843750
vt 0.389515 0.733265
vt 0.500000 0.687500
vt 0.610485 0.733265
vt 0.656250 0.843750
vt 0.610485 0.954235
vt 0.500000 1.000000
vt 0.389515 0.954235
vt 0.343750 0.843750
vt 0.389515 0.733265
vt 0.500000 0.687500
vt 0.610485 0.733265
vt 0.656250 0.843750
vt 0.610485 0.954235
vt 0.500000 1.000000
vt 0.389515 0.954235
vt 0.343750 0.843750
vt 0.389515 0.733265
vt 0.500000 0.687500
vt 0.610485 0.733265
vt 0.656250 0.843750
vt 0.500000 0.843750
vt 0.343750 0.843750
vt 0.656250 0.843750
vt 0.343750 0.843750
vt 0.389515 0.733265
vt 0.500000 0.687500
vt 0.610485 0.733265
vt 0.656250 0.843750
vn 0.374384 0.000000 -0.927274
vn 0.374384 0.000000 -0.927274
vn 0.374384 0.000000 -0.927274
vn 0.374384 0.000000 -0.927274
vn -0.374384 0.000000 -0.927274
vn -0.374384 0.000000 -0.927274
vn -0.374384 0.000000 -0.927274
vn -0.374384 0.000000 -0.927274
vn -0.919179 0.000000 -0.393839
vn -0.919179 0.000000 -0.393839
vn -0.919179 0.000000 -0.393839
vn -0.919179 0.000000 -0.393839
vn -0.919179 0.000000 0.393839
vn -0.919179 0.000000 0.393839
vn -0.919179 0.000000 0.393839
vn -0.919179 0.000000 0.393839
vn -0.374384 0.000000 0.927274
vn -0.374384 0.000000 0.927274
vn -0.374384 0.000000 0.927274
vn -0.374384 0.000000 0.927274
vn 0.374383 0.000000 0.927274
vn 0.374383 0.000000 0.927274
vn 0.374383 0.000000 0.927274
vn 0.374383 0.000000 0.927274
vn 0.919179 0.000000 0.393839
vn 0.919179 0.000000 0.393839
vn 0.919179 0.000000 0.393839
vn 0.919179 0.000000 0.393839
vn 0.919179 0.000000 -0.393840
vn 0.919179 0.000000 -0.393840
vn 0.919179 0.000000 -0.393840
vn 0.919179 0.000000 -0.393840
vn 0.000000 -1.000000 0.000000
vn 0.000000 -1.000000 0.000000
vn 0.000000 -1.000000 0.000000
vn 0.000000 -1.000000 0.000002
vn 0.000000 -1.000000 0.000002
vn 0.000000 -1.000000 0.000000
vn 0.000000 -1.000000 0.000000
vn 0.000000 -1.000000 0.000000
vn 0.000000 -1.000000 0.000000
vn 0.385102 0.392080 0.835446
vn -0.000001 0.555950 0.831215
vn 0.000003 0.430184 0.902741
vn -0.385104 0.392071 0.835449
vn -0.529017 0.226579 0.817804
vn 0.000075 -0.000048 1.000000
vn -0.371663 0.000015 0.928368
vn -0.371663 0.000015 0.928368
vn -0.000075 -0.000048 1.000000
vn 0.371659 -0.000104 0.928370
vn 0.371659 -0.000104 0.928369
vn 0.529015 0.226590 0.817802
vn 0.373386 0.093775 -0.922924
vn 0.373386 0.093775 -0.922924
vn 0.373386 0.093775 -0.922924
vn 0.373386 0.093775 -0.922924
vn -0.373386 0.093775 -0.922924
vn -0.373386 0.093775 -0.922924
vn -0.373386 0.093775 -0.922924
vn -0.373386 0.093775 -0.922924
vn -0.914932 0.096017 -0.392020
vn -0.914932 0.096017 -0.392020
vn -0.914932 0.096017 -0.392020
vn -0.914932 0.096017 -0.392020
vn -0.914932 0.096017 0.392020
vn -0.914932 0.096017 0.392020
vn -0.914932 0.096017 0.392020
vn -0.914932 0.096017 0.392020
vn -0.373386 0.093775 0.922924
vn -0.373386 0.093775 0.922924
vn -0.373386 0.093775 0.922924
vn -0.373386 0.093775 0.922924
vn 0.373386 0.093775 0.922924
vn 0.373386 0.093775 0.922924
vn 0.373386 0.093775 0.922924
vn 0.373386 0.093775 0.922924
vn 0.914932 0.096017 0.392020
vn 0.914932 0.096017 0.392020
vn 0.914932 0.096017 0.392020
vn 0.914932 0.096017 0.392020
vn 0.914932 0.096017 -0.392020
vn 0.914932 0.096017 -0.392020
vn 0.914932 0.096017 -0.392020
vn 0.914932 0.096017 -0.392020
vn 0.000000 1.000000 0.000006
vn 0.000000 1.000000 0.000006
vn 0.000000 1.000000 0.000006
vn 0.000000 1.000000 0.000006
vn 0.000000 1.000000 0.000005
vn 0.000000 1.000000 0.000005
vn 0.000000 1.000000 0.000005
vn 0.000000 1.000000 0.000005
vn 0.000000 1.000000 0.000000
vn 0.000000 1.000000 0.000000
vn 0.000000 1.000000 0.000000
vn 0.000000 1.000000 0.000000
vn 0.000000 1.000000 0.000005
vn 0.000000 1.000000 0.000005
vn 0.000000 1.000000 0.000005
vn 0.000000 1.000000 0.000005
vn 0.000000 1.000000 -0.000006
vn 0.000000 1.000000 -0.000006
vn 0.000000 1.000000 -0.000006
vn 0.000000 1.000000 -0.000006
vn 0.000000 1.000000 0.000005
vn 0.000000 1.000000 0.000005
vn 0.000000 1.000000 0.000005
vn 0.000000 1.000000 0.000005
vn 0.000000 1.000000 -0.000005
vn 0.000000 1.000000 -0.000005
vn 0.000000 1.000000 -0.000005
vn 0.000000 1.000000 -0.000005
vn 0.000000 1.000000 0.000011
vn 0.000000 1.000000 0.000011
vn 0.000000 1.000000 0.000011
vn 0.000000 1.000000 0.000011
vn 0.382684 0.000000 -0.923879
vn 0.382684 0.000000 -0.923879
vn 0.382684 0.000000 -0.923879
vn 0.382684 0.000000 -0.923879
vn -0.382684 0.000000 -0.923879
vn -0.382684 0.000000 -0.923879
vn -0.382684 0.000000 -0.923879
vn -0.382684 0.000000 -0.923879
vn -0.923879 0.000000 -0.382685
vn -0.923879 0.000000 -0.382685
vn -0.923879 0.000000 -0.382685
vn -0.923879 0.000000 -0.382685
vn -0.923879 0.000000 0.382684
vn -0.923879 0.000000 0.382684
vn -0.923879 0.000000 0.382684
vn -0.923879 0.000000 0.382684
vn -0.382684 0.000000 0.923879
vn -0.382684 0.000000 0.923879
vn -0.382684 0.000000 0.923879
vn -0.382684 0.000000 0.923879
vn 0.382684 0.000000 0.923879
vn 0.382684 0.000000 0.923879
vn 0.382684 0.000000 0.923879
vn 0.382684 0.000000 0.923879
vn 0.923879 0.000000 0.382684
vn 0.923879 0.000000 0.382684
vn 0.923879 0.000000 0.382684
vn 0.923879 0.000000 0.382684
vn 0.923879 0.000000 -0.382685
vn 0.923879 0.000000 -0.382685
vn 0.923879 0.000000 -0.382685
vn 0.923879 0.000000 -0.382685
vn 0.369754 0.312614 -0.874960
vn 0.369754 0.312614 -0.874960
vn 0.376579 0.451268 -0.809040
vn 0.376527 0.448438 -0.810636
vn -0.369756 0.312615 -0.874959
vn -0.369756 0.312614 -0.874959
vn -0.376527 0.448439 -0.810636
vn -0.376580 0.451269 -0.809039
vn -0.918159 0.137716 -0.371507
vn -0.918159 0.137716 -0.371507
vn -0.920963 0.189811 -0.340294
vn -0.921013 0.192369 -0.338718
vn -0.917806 -0.147459 0.368630
vn -0.917806 -0.147459 0.368630
vn -0.920360 -0.194323 0.339376
vn -0.920404 -0.196210 0.338169
vn -0.367497 -0.371277 0.852701
vn -0.367497 -0.371277 0.852701
vn -0.372991 -0.470798 0.799517
vn -0.373029 -0.472007 0.798786
vn 0.367497 -0.371278 0.852701
vn 0.367497 -0.371278 0.852701
vn 0.373029 -0.472007 0.798785
vn 0.372991 -0.470798 0.799517
vn 0.917806 -0.147459 0.368630
vn 0.917806 -0.147459 0.368630
vn 0.920405 -0.196208 0.338166
vn 0.920361 -0.194321 0.339374
vn 0.918160 0.137716 -0.371506
vn 0.918160 0.137716 -0.371506
vn 0.921012 0.192369 -0.338720
vn 0.920962 0.189812 -0.340296
vn 0.385732 0.709516 -0.589743
vn 0.385679 0.706394 -0.593514
vn -0.385680 0.706394 -0.593514
vn -0.385732 0.709516 -0.589744
vn -0.925210 0.288953 -0.245951
vn -0.925268 0.292371 -0.241657
vn -0.925415 -0.287234 0.247192
vn -0.925483 -0.291224 0.242217
vn -0.387003 -0.698912 0.601457
vn -0.387084 -0.703473 0.596064
vn 0.387078 -0.703476 0.596063
vn 0.386997 -0.698916 0.601456
vn 0.925487 -0.291219 0.242210
vn 0.925419 -0.287229 0.247184
vn 0.925265 0.292375 -0.241663
vn 0.925208 0.288957 -0.245957
vn 0.379330 0.915681 -0.132805
vn 0.378915 0.916954 -0.124973
vn -0.378918 0.916953 -0.124975
vn -0.379334 0.915679 -0.132807
vn -0.922032 0.384177 -0.047587
vn -0.922490 0.381981 -0.055705
vn -0.921775 -0.385294 0.043352
vn -0.922261 -0.383119 0.051520
vn -0.377573 -0.920564 0.100004
vn -0.378048 -0.919477 0.107897
vn 0.378022 -0.919488 0.107894
vn 0.377547 -0.920575 0.100001
vn 0.922267 -0.383105 0.051511
vn 0.921781 -0.385280 0.043343
vn 0.922485 0.381992 -0.055709
vn 0.922028 0.384188 -0.047591
vn 0.369033 0.929416 0.001038
vn 0.369033 0.929416 0.001038
vn -0.369037 0.929414 0.001038
vn -0.369037 0.929414 0.001038
vn -0.917905 0.396799 0.001285
vn -0.917905 0.396799 0.001285
vn -0.917818 -0.396992 -0.002568
vn -0.917818 -0.396992 -0.002568
vn -0.368673 -0.929521 -0.008397
vn -0.368673 -0.929521 -0.008397
vn 0.368642 -0.929534 -0.008401
vn 0.368642 -0.929534 -0.008401
vn 0.917825 -0.396976 -0.002575
vn 0.917825 -0.396976 -0.002575
vn 0.917899 0.396812 0.001282
vn 0.917899 0.396812 0.001282
vn 0.371902 0.928272 0.000000
vn 0.371902 0.928272 0.000000
vn 0.371902 0.928272 0.000000
vn 0.371902 0.928272 0.000000
vn -0.371909 0.928269 0.000000
vn -0.371909 0.928269 0.000000
vn -0.371909 0.928269 0.000000
vn -0.371909 0.928269 0.000000
vn -0.919235 0.393710 0.000000
vn -0.919235 0.393710 0.000000
vn -0.919235 0.393710 0.000000
vn -0.919235 0.393710 0.000000
vn -0.996498 -0.000045 0.083612
vn -0.996498 -0.000045 0.083612
vn -0.996498 -0.000045 0.083612
vn -0.996498 -0.000045 0.083612
vn -0.000004 -1.000000 0.000000
vn -0.000004 -1.000000 0.000000
vn -0.000004 -1.000000 0.000000
vn -0.000004 -1.000000 0.000000
vn 0.000004 -1.000000 0.000000
vn 0.000004 -1.000000 0.000000
vn 0.000004 -1.000000 0.000000
vn 0.000004 -1.000000 0.000000
vn 0.996498 -0.000045 0.083612
vn 0.996498 -0.000045 0.083612
vn 0.996498 -0.000045 0.083612
vn 0.996498 -0.000045 0.083612
vn 0.919227 0.393728 0.000000
vn 0.919227 0.393728 0.000000
vn 0.919227 0.393728 0.000000
vn 0.919227 0.393728 0.000000
vn -0.000000 0.998797 0.049045
vn -0.059068 0.998016 0.021805
vn -0.041868 0.998540 0.034139
vn -0.000000 0.998797 0.049045
vn 0.059068 0.998016 0.021805
vn 0.041868 0.998540 0.034139
vn -0.000000 0.000004 -1.000000
vn -0.000000 0.000002 -1.000000
vn -0.000000 0.000004 -1.000000
vn -0.000000 0.000004 -1.000000
vn -0.081536 0.996654 0.005650
vn -0.081536 0.996654 0.005650
vn -0.000000 0.000000 -1.000000
vn -0.000000 0.000000 -1.000000
vn 0.000000 0.000002 -1.000000
vn 0.000000 0.000004 -1.000000
vn 0.000000 0.000004 -1.000000
vn 0.000000 0.000004 -1.000000
vn 0.081536 0.996654 0.005650
vn 0.081536 0.996654 0.005650
s off
g pCylinder1
usemtl initialShadingGroup
f 1/9/1 2/10/2 10/19/3 9/18/4
f 2/10/5 3/11/6 11/20/7 10/19/8
f 3/11/9 4/12/10 12/21/11 11/20/12
f 4/12/13 5/13/14 13/22/15 12/21/16
f 5/13/17 6/14/18 14/23/19 13/22/20
f 6/14/21 7/15/22 15/24/23 14/23/24
f 7/15/25 8/16/26 16/25/27 15/24/28
f 8/16/29 1/17/30 9/26/31 16/25/32
s 1
f 2/2/33 1/1/34 17/35/35
f 3/3/36 2/2/33 17/35/35
f 4/4/37 3/3/36 17/35/35
f 5/5/38 4/4/37 17/35/35
f 6/6/39 5/5/38 17/35/35
f 7/7/40 6/6/39 17/35/35
f 8/8/41 7/7/40 17/35/35
f 1/1/34 8/8/41 17/35/35
s 2
f 74/93/42 75/94/43 76/36/44
f 75/94/43 77/95/45 76/36/44
f 77/95/45 78/96/46 76/36/44
s 3
f 82/101/47 80/102/48 81/97/49 83/98/50
f 82/101/47 83/98/50 84/99/51 85/103/52
s 2
f 79/100/53 74/93/42 76/36/44
s off
f 9/33/54 10/32/55 19/38/56 18/37/57
f 10/32/58 11/31/59 20/39/60 19/38/61
f 11/31/62 12/30/63 21/40/64 20/39/65
f 12/30/66 13/29/67 22/41/68 21/40/69
f 13/29/70 14/28/71 23/42/72 22/41/73
f 14/28/74 15/27/75 24/43/76 23/42/77
f 15/27/78 16/34/79 25/44/80 24/43/81
f 16/34/82 9/33/83 18/37/84 25/44/85
f 18/37/86 19/38/87 27/46/88 26/45/89
f 19/38/90 20/39/91 28/47/92 27/46/93
f 20/39/94 21/40/95 29/48/96 28/47/97
f 21/40/98 22/41/99 30/49/100 29/48/101
f 22/41/102 23/42/103 31/50/104 30/49/105
f 23/42/106 24/43/107 32/51/108 31/50/109
f 24/43/110 25/44/111 33/52/112 32/51/113
f 25/44/114 18/37/115 26/45/116 33/52/117
f 26/45/118 27/46/119 35/54/120 34/53/121
f 27/46/122 28/47/123 36/55/124 35/54/125
f 28/47/126 29/48/127 37/56/128 36/55/129
f 29/48/130 30/49/131 38/57/132 37/56/133
f 30/49/134 31/50/135 39/58/136 38/57/137
f 31/50/138 32/51/139 40/59/140 39/58/141
f 32/51/142 33/52/143 41/60/144 40/59/145
f 33/52/146 26/45/147 34/53/148 41/60/149
s 4
f 34/53/150 35/54/151 43/62/152 42/61/153
s 5
f 35/54/154 36/55/155 44/63/156 43/62/157
s 6
f 36/55/158 37/56/159 45/64/160 44/63/161
s 7
f 37/56/162 38/57/163 46/65/164 45/64/165
s 8
f 38/57/166 39/58/167 47/66/168 46/65/169
s 9
f 39/58/170 40/59/171 48/67/172 47/66/173
s 10
f 40/59/174 41/60/175 49/68/176 48/67/177
s 11
f 41/60/178 34/53/179 42/61/180 49/68/181
s 4
f 42/61/153 43/62/152 51/70/182 50/69/183
s 5
f 43/62/157 44/63/156 52/71/184 51/70/185
s 6
f 44/63/161 45/64/160 53/72/186 52/71/187
s 7
f 45/64/165 46/65/164 54/73/188 53/72/189
s 8
f 46/65/169 47/66/168 55/74/190 54/73/191
s 9
f 47/66/173 48/67/172 56/75/192 55/74/193
s 10
f 48/67/177 49/68/176 57/76/194 56/75/195
s 11
f 49/68/181 42/61/180 50/69/196 57/76/197
s 4
f 50/69/183 51/70/182 59/78/198 58/77/199
s 5
f 51/70/185 52/71/184 60/79/200 59/78/201
s 6
f 52/71/187 53/72/186 61/80/202 60/79/203
s 7
f 53/72/189 54/73/188 62/81/204 61/80/205
s 8
f 54/73/191 55/74/190 63/82/206 62/81/207
s 9
f 55/74/193 56/75/192 64/83/208 63/82/209
s 10
f 56/75/195 57/76/194 65/84/210 64/83/211
s 11
f 57/76/197 50/69/196 58/77/212 65/84/213
s 4
f 58/77/199 59/78/198 67/86/214 66/85/215
s 5
f 59/78/201 60/79/200 68/87/216 67/86/217
s 6
f 60/79/203 61/80/202 69/88/218 68/87/219
s 7
f 61/80/205 62/81/204 70/89/220 69/88/221
s 8
f 62/81/207 63/82/206 71/90/222 70/89/223
s 9
f 63/82/209 64/83/208 72/91/224 71/90/225
s 10
f 64/83/211 65/84/210 73/92/226 72/91/227
s 11
f 65/84/213 58/77/212 66/85/228 73/92/229
s off
f 66/85/230 67/86/231 75/94/232 74/93/233
f 67/86/234 68/87/235 77/95/236 75/94/237
f 68/87/238 69/88/239 78/96/240 77/95/241
f 86/104/242 87/105/243 81/97/244 80/102/245
f 87/105/246 88/106/247 83/98/248 81/97/249
f 88/106/250 89/107/251 84/99/252 83/98/253
f 89/107/254 90/108/255 85/103/256 84/99/257
f 73/92/258 66/85/259 74/93/260 79/100/261
s 12
f 76/36/262 78/96/263 80/102/264 82/101/265
f 79/100/266 76/36/262 82/101/265 85/103/267
s 13
f 69/88/268 70/89/269 87/105/270 86/104/271
s 12
f 78/96/263 69/88/272 86/104/273 80/102/264
s 13
f 70/89/269 71/90/274 88/106/275 87/105/270
f 71/90/274 72/91/276 89/107/277 88/106/275
f 72/91/276 73/92/278 90/108/279 89/107/277
s 12
f 73/92/280 79/100/266 85/103/267 90/108/281
